<?xml version="1.0" encoding="UTF-8" standalone="no"?>
<!-- Created with Inkscape (http://www.inkscape.org/) -->

<svg
   xmlns:dc="http://purl.org/dc/elements/1.1/"
   xmlns:cc="http://creativecommons.org/ns#"
   xmlns:rdf="http://www.w3.org/1999/02/22-rdf-syntax-ns#"
   xmlns:svg="http://www.w3.org/2000/svg"
   xmlns="http://www.w3.org/2000/svg"
   xmlns:xlink="http://www.w3.org/1999/xlink"
   xmlns:sodipodi="http://sodipodi.sourceforge.net/DTD/sodipodi-0.dtd"
   xmlns:inkscape="http://www.inkscape.org/namespaces/inkscape"
   width="144.92386"
   height="198.2626"
   viewBox="0 0 38.344436 52.456982"
   version="1.1"
   id="svg8"
   inkscape:version="0.92.3 (2405546, 2018-03-11)"
   sodipodi:docname="left1.svg"
   inkscape:export-filename="G:\Google Drive\Application\Python\PyCharm\Python3.6\WebGame\WebGameTest\static\enemy\zombie\source\left1.png"
   inkscape:export-xdpi="96"
   inkscape:export-ydpi="96">
  <defs
     id="defs2">
    <pattern
       inkscape:collect="always"
       xlink:href="#pattern6617"
       id="pattern6626"
       patternTransform="matrix(0.26458333,0,0,0.26458333,-25.337788,215.77826)" />
    <linearGradient
       id="linearGradient8967"
       inkscape:collect="always">
      <stop
         id="stop8963"
         offset="0"
         style="stop-color:#1c3950;stop-opacity:1" />
      <stop
         id="stop8965"
         offset="1"
         style="stop-color:#3a76a4;stop-opacity:1" />
    </linearGradient>
    <linearGradient
       inkscape:collect="always"
       id="linearGradient8941">
      <stop
         style="stop-color:#2b1c13;stop-opacity:1"
         offset="0"
         id="stop8937" />
      <stop
         style="stop-color:#513524;stop-opacity:1"
         offset="1"
         id="stop8939" />
    </linearGradient>
    <linearGradient
       inkscape:collect="always"
       id="linearGradient8933">
      <stop
         style="stop-color:#2b5779;stop-opacity:1"
         offset="0"
         id="stop8929" />
      <stop
         style="stop-color:#5f99c6;stop-opacity:1"
         offset="1"
         id="stop8931" />
    </linearGradient>
    <linearGradient
       inkscape:collect="always"
       id="linearGradient8810">
      <stop
         style="stop-color:#48766f;stop-opacity:1"
         offset="0"
         id="stop8806" />
      <stop
         style="stop-color:#78ada5;stop-opacity:1"
         offset="1"
         id="stop8808" />
    </linearGradient>
    <linearGradient
       inkscape:collect="always"
       id="linearGradient8794">
      <stop
         style="stop-color:#6a6a6a;stop-opacity:1"
         offset="0"
         id="stop8790" />
      <stop
         style="stop-color:#d6d6d6;stop-opacity:1"
         offset="1"
         id="stop8792" />
    </linearGradient>
    <linearGradient
       inkscape:collect="always"
       id="linearGradient8773">
      <stop
         style="stop-color:#767676;stop-opacity:1"
         offset="0"
         id="stop8769" />
      <stop
         style="stop-color:#e6e6e6;stop-opacity:1"
         offset="1"
         id="stop8771" />
    </linearGradient>
    <linearGradient
       inkscape:collect="always"
       id="linearGradient8765">
      <stop
         style="stop-color:#7a0000;stop-opacity:1"
         offset="0"
         id="stop8761" />
      <stop
         style="stop-color:#c00000;stop-opacity:1"
         offset="1"
         id="stop8763" />
    </linearGradient>
    <linearGradient
       id="linearGradient8711"
       inkscape:collect="always">
      <stop
         id="stop8707"
         offset="0"
         style="stop-color:#16675b;stop-opacity:1" />
      <stop
         id="stop8709"
         offset="1"
         style="stop-color:#daf7f3;stop-opacity:1" />
    </linearGradient>
    <linearGradient
       inkscape:collect="always"
       id="linearGradient4553">
      <stop
         style="stop-color:#f0f0f0;stop-opacity:1"
         offset="0"
         id="stop4549" />
      <stop
         style="stop-color:#a0a600;stop-opacity:1"
         offset="1"
         id="stop4551" />
    </linearGradient>
    <linearGradient
       inkscape:collect="always"
       id="linearGradient4541">
      <stop
         style="stop-color:#16675b;stop-opacity:1"
         offset="0"
         id="stop4537" />
      <stop
         style="stop-color:#61dccc;stop-opacity:0"
         offset="1"
         id="stop4539" />
    </linearGradient>
    <linearGradient
       inkscape:collect="always"
       xlink:href="#linearGradient4541"
       id="linearGradient4543"
       x1="78.239609"
       y1="271.9071"
       x2="83.895462"
       y2="245.71536"
       gradientUnits="userSpaceOnUse" />
    <radialGradient
       inkscape:collect="always"
       xlink:href="#linearGradient4553"
       id="radialGradient4557"
       cx="72.155701"
       cy="234.34521"
       fx="72.155701"
       fy="234.34521"
       r="3.8595293"
       gradientUnits="userSpaceOnUse" />
    <radialGradient
       inkscape:collect="always"
       xlink:href="#linearGradient4553"
       id="radialGradient4557-1"
       cx="72.155701"
       cy="234.34521"
       fx="72.155701"
       fy="234.34521"
       r="3.8595293"
       gradientUnits="userSpaceOnUse"
       gradientTransform="translate(-57.532118,30.685433)" />
    <filter
       inkscape:collect="always"
       style="color-interpolation-filters:sRGB"
       id="filter6322"
       x="-0.98159999"
       width="2.9632001"
       y="-0.98159999"
       height="2.9632001">
      <feGaussianBlur
         inkscape:collect="always"
         stdDeviation="2.9766766"
         id="feGaussianBlur6324" />
    </filter>
    <filter
       inkscape:collect="always"
       style="color-interpolation-filters:sRGB"
       id="filter6790"
       x="-0.78396249"
       width="2.567925"
       y="-0.91305804"
       height="2.8261161">
      <feGaussianBlur
         inkscape:collect="always"
         stdDeviation="2.3868903"
         id="feGaussianBlur6792" />
    </filter>
    <filter
       inkscape:collect="always"
       style="color-interpolation-filters:sRGB"
       id="filter8651"
       x="-0.52710748"
       width="2.054215"
       y="-0.54354489"
       height="2.0870898">
      <feGaussianBlur
         inkscape:collect="always"
         stdDeviation="1.2383538"
         id="feGaussianBlur8653" />
    </filter>
    <linearGradient
       inkscape:collect="always"
       xlink:href="#linearGradient8711"
       id="linearGradient8674"
       gradientUnits="userSpaceOnUse"
       x1="78.239609"
       y1="271.9071"
       x2="83.381897"
       y2="245.84375"
       gradientTransform="matrix(1.1468812,0,0,1.1468812,-90.668644,-40.59018)" />
    <linearGradient
       inkscape:collect="always"
       xlink:href="#linearGradient8765"
       id="linearGradient8767"
       x1="40.460747"
       y1="292.14294"
       x2="43.281048"
       y2="281.10233"
       gradientUnits="userSpaceOnUse"
       gradientTransform="matrix(1.1411203,0.11480879,-0.11480879,1.1411203,9.0077819,-50.909153)" />
    <linearGradient
       inkscape:collect="always"
       xlink:href="#linearGradient8773"
       id="linearGradient8775"
       x1="80.346245"
       y1="284.87305"
       x2="86.323212"
       y2="273.18951"
       gradientUnits="userSpaceOnUse"
       gradientTransform="matrix(1.1452183,0.06173809,-0.06173809,1.1452183,-46.540473,-45.883167)" />
    <linearGradient
       inkscape:collect="always"
       xlink:href="#linearGradient8794"
       id="linearGradient8796"
       x1="85.926346"
       y1="278.19589"
       x2="84.132942"
       y2="274.2467"
       gradientUnits="userSpaceOnUse"
       gradientTransform="matrix(1.1468812,0,0,1.1468812,-63.125441,-41.620926)" />
    <linearGradient
       inkscape:collect="always"
       xlink:href="#linearGradient8810"
       id="linearGradient8812"
       x1="76.567711"
       y1="281.01993"
       x2="74.876381"
       y2="277.20688"
       gradientUnits="userSpaceOnUse"
       gradientTransform="matrix(1.1468812,0,0,1.1468812,-63.125441,-41.620926)" />
    <linearGradient
       inkscape:collect="always"
       xlink:href="#linearGradient8810"
       id="linearGradient8812-1"
       x1="76.567711"
       y1="281.01993"
       x2="74.876381"
       y2="277.20688"
       gradientUnits="userSpaceOnUse"
       gradientTransform="matrix(1.0061565,0.55044123,-0.55044123,1.0061565,92.28181,-47.687391)" />
    <linearGradient
       inkscape:collect="always"
       xlink:href="#linearGradient8794"
       id="linearGradient8796-6"
       x1="85.926346"
       y1="278.19589"
       x2="84.132942"
       y2="274.2467"
       gradientUnits="userSpaceOnUse"
       gradientTransform="matrix(1.0061565,0.55044123,-0.55044123,1.0061565,89.534769,-47.908303)" />
    <linearGradient
       inkscape:collect="always"
       xlink:href="#linearGradient8933"
       id="linearGradient8935"
       x1="82.566879"
       y1="285.80026"
       x2="78.064903"
       y2="291.4744"
       gradientUnits="userSpaceOnUse" />
    <linearGradient
       inkscape:collect="always"
       xlink:href="#linearGradient8941"
       id="linearGradient8943"
       x1="75.0326"
       y1="293.73608"
       x2="81.110222"
       y2="290.64935"
       gradientUnits="userSpaceOnUse"
       gradientTransform="translate(0,0.27235826)" />
    <linearGradient
       inkscape:collect="always"
       xlink:href="#linearGradient8967"
       id="linearGradient8961"
       x1="85.590042"
       y1="285.45236"
       x2="89.541756"
       y2="290.3548"
       gradientUnits="userSpaceOnUse"
       gradientTransform="translate(-52.292787,-2.1334731)" />
    <linearGradient
       inkscape:collect="always"
       xlink:href="#linearGradient8941"
       id="linearGradient8975"
       x1="93.050194"
       y1="288.79031"
       x2="89.101822"
       y2="291.24152"
       gradientUnits="userSpaceOnUse"
       gradientTransform="translate(-52.292787,-2.1334731)" />
    <pattern
       patternUnits="userSpaceOnUse"
       width="158.61879"
       height="109.39283"
       patternTransform="matrix(0.26458333,0,0,0.26458333,56.665273,239.51337)"
       id="pattern6617">
      <g
         id="g6615"
         transform="matrix(3.7795276,0,0,3.7795276,-214.16796,-905.24738)">
        <circle
           style="opacity:1;fill:#000000;fill-opacity:1;fill-rule:nonzero;stroke:none;stroke-width:0.5291667;stroke-linecap:square;stroke-linejoin:round;stroke-miterlimit:4;stroke-dasharray:none;stroke-opacity:1;paint-order:fill markers stroke;filter:url(#filter6322)"
           id="path4547-2"
           cx="26.705311"
           cy="261.56406"
           r="3.6389689"
           transform="matrix(1.1468812,0,0,1.1468812,49.831368,-43.892822)" />
        <path
           style="opacity:1;fill:#000000;fill-opacity:1;fill-rule:nonzero;stroke:none;stroke-width:0.5291667;stroke-linecap:square;stroke-linejoin:round;stroke-miterlimit:4;stroke-dasharray:none;stroke-opacity:1;paint-order:fill markers stroke;filter:url(#filter6790)"
           d="m 19.562046,261.60814 c 1.777574,1.26624 0.744377,3.4893 -3.003466,3.27583 -1.901445,-0.10831 -3.448387,-1.13112 -3.457397,-3.00347 -0.01117,-2.32182 0.8576,-3.57775 2.549536,-3.18504 1.946675,0.45184 1.313277,1.06198 3.911327,2.91268 z"
           id="path4547-7-0"
           inkscape:connector-curvature="0"
           sodipodi:nodetypes="sssss"
           transform="matrix(1.1468812,0,0,1.1468812,48.209846,-44.39551)" />
        <path
           style="fill:none;stroke:#000000;stroke-width:0.55703998;stroke-linecap:butt;stroke-linejoin:miter;stroke-miterlimit:4;stroke-dasharray:none;stroke-opacity:1;filter:url(#filter8651)"
           d="m 33.258642,268.79172 c 3.443,-0.64999 4.92187,-2.77307 5.638412,-5.4679"
           id="path6819"
           inkscape:connector-curvature="0"
           sodipodi:nodetypes="cc"
           transform="matrix(0.9201115,0,0,1.2900562,56.466615,-84.415268)" />
        <path
           style="opacity:1;fill:none;fill-opacity:1;fill-rule:nonzero;stroke:#000000;stroke-width:0.02645833;stroke-linecap:square;stroke-linejoin:round;stroke-miterlimit:4;stroke-dasharray:none;stroke-opacity:1;paint-order:fill markers stroke"
           d="m 98.467548,251.89956 c -0.524918,4.66084 -2.151332,9.41681 -6.059625,12.69929 -3.908292,3.28249 -8.8373,3.70363 -13.509159,3.70363 -4.839164,0.14725 -10.179518,-0.19896 -10.156156,-0.94758 0.06137,-1.96679 1.849145,-1.38044 3.798552,-1.21446 2.328424,0.19826 8.106507,0.8642 7.13161,-0.51083 -1.151755,-1.62449 -10.7683,0.48543 -14.190857,-4.26872 -1.928125,-2.67829 -2.186686,-4.80799 -1.660833,-7.2526 1.682238,-7.82046 7.132995,-13.60637 17.875417,-14.34144 4.516636,-0.30905 11.032122,-0.88179 14.613527,2.52565 2.377837,2.26234 2.52484,6.34557 2.157524,9.60706 z"
           id="path828-1"
           inkscape:connector-curvature="0"
           sodipodi:nodetypes="ascssssssaa" />
      </g>
    </pattern>
  </defs>
  <sodipodi:namedview
     id="base"
     pagecolor="#ffffff"
     bordercolor="#666666"
     borderopacity="1.0"
     inkscape:pageopacity="0.0"
     inkscape:pageshadow="2"
     inkscape:zoom="2.8284271"
     inkscape:cx="45.659562"
     inkscape:cy="91.112263"
     inkscape:document-units="mm"
     inkscape:current-layer="layer1"
     showgrid="false"
     units="px"
     inkscape:window-width="1920"
     inkscape:window-height="1013"
     inkscape:window-x="-9"
     inkscape:window-y="-9"
     inkscape:window-maximized="1"
     fit-margin-top="0"
     fit-margin-left="0"
     fit-margin-right="0"
     fit-margin-bottom="0" />
  <metadata
     id="metadata5">
    <rdf:RDF>
      <cc:Work
         rdf:about="">
        <dc:format>image/svg+xml</dc:format>
        <dc:type
           rdf:resource="http://purl.org/dc/dcmitype/StillImage" />
        <dc:title />
      </cc:Work>
    </rdf:RDF>
  </metadata>
  <g
     inkscape:label="圖層 1"
     inkscape:groupmode="layer"
     id="layer1"
     transform="translate(-7.5300545,-244.46839)">
    <rect
       style="fill:none;fill-opacity:1;stroke:none;stroke-width:0.04807191;stroke-miterlimit:4;stroke-dasharray:none;stroke-opacity:1"
       id="rect905"
       width="38.316513"
       height="52.339428"
       x="7.5440168"
       y="244.52716" />
    <a
       id="a4533"
       transform="translate(-49.815677)"
       style="fill:url(#linearGradient4543);fill-opacity:1" />
    <g
       id="g8947"
       transform="matrix(1.1416182,0.10974692,-0.10974692,1.1416182,-34.113436,-48.847261)">
      <path
         sodipodi:nodetypes="ccscc"
         inkscape:connector-curvature="0"
         id="path8918"
         d="m 83.523203,294.61683 -9.441753,-0.0454 c -0.163415,-0.0719 -0.955383,-4.2742 4.357732,-3.97189 3.729066,0.21218 5.118077,-0.13889 5.084021,4.01728 z"
         style="opacity:1;fill:url(#linearGradient8943);fill-opacity:1;fill-rule:nonzero;stroke:#000000;stroke-width:0.52916664;stroke-linecap:round;stroke-linejoin:miter;stroke-miterlimit:4;stroke-dasharray:none;stroke-opacity:1;paint-order:fill markers stroke" />
      <path
         sodipodi:nodetypes="ccczcc"
         inkscape:connector-curvature="0"
         id="rect8914"
         d="m 77.61553,284.80418 5.716621,-0.0454 0.09079,7.98627 c 0,0 -1.678575,-1.271 -2.631345,-1.65684 C 79.838826,290.70236 77.70632,290.43 77.70632,290.43 Z"
         style="opacity:1;fill:url(#linearGradient8935);fill-opacity:1;fill-rule:nonzero;stroke:#000000;stroke-width:0.52916664;stroke-linecap:round;stroke-linejoin:miter;stroke-miterlimit:4;stroke-dasharray:none;stroke-opacity:1;paint-order:fill markers stroke" />
    </g>
    <g
       id="g8985"
       transform="matrix(1.1293672,0.19966504,-0.19966504,1.1293672,50.925669,-40.463196)">
      <path
         sodipodi:nodetypes="ccscccc"
         inkscape:connector-curvature="0"
         id="rect8952"
         d="m 38.538696,285.28859 3.586051,0.72628 c 0,0 -0.05952,4.24699 -0.771682,4.81167 -0.904679,0.71732 -5.855703,0.0454 -5.855703,0.0454 -0.613938,-0.60524 -0.278565,-1.21048 0.181572,-1.81572 l 2.315045,-1.40718 z"
         style="opacity:1;fill:url(#linearGradient8975);fill-opacity:1;fill-rule:nonzero;stroke:#000000;stroke-width:0.52916664;stroke-linecap:round;stroke-linejoin:miter;stroke-miterlimit:4;stroke-dasharray:none;stroke-opacity:1;paint-order:fill markers stroke" />
      <path
         sodipodi:nodetypes="ccccccc"
         inkscape:connector-curvature="0"
         id="rect8949"
         d="m 28.728327,282.68951 7.399978,-0.98954 1.067405,2.88924 2.387029,0.92633 -1.548104,4.49391 -5.281347,-1.6841 z"
         style="opacity:1;fill:url(#linearGradient8961);fill-opacity:1;fill-rule:nonzero;stroke:#000000;stroke-width:0.52916664;stroke-linecap:round;stroke-linejoin:miter;stroke-miterlimit:4;stroke-dasharray:none;stroke-opacity:1;paint-order:fill markers stroke" />
    </g>
    <g
       id="g9100"
       transform="rotate(-10.193312,22.084994,271.42893)">
      <g
         id="g9092">
        <path
           style="fill:url(#linearGradient8812-1);fill-opacity:1;stroke:#000000;stroke-width:0.60689133;stroke-linecap:butt;stroke-linejoin:miter;stroke-miterlimit:4;stroke-dasharray:none;stroke-opacity:1"
           d="m 21.083163,275.75328 -4.454172,0.11495 c 0,0 -1.179047,-2.23654 -1.915806,-3.00637 -0.73676,-0.76983 -1.971706,-1.49407 -2.337085,-1.69396 -0.365381,-0.19989 -2.7970604,0.66546 -2.7970604,0.66546 l 1.0066514,2.39031 c 0,0 1.77701,0.30204 2.545575,1.0959 0.768566,0.79386 0.450308,2.18599 1.172146,2.95558 0.267117,0.28478 0.539473,0.5325 0.882016,0.7199 0.342545,0.18739 0.783912,0.43147 1.173248,0.40448 3.540594,-0.24782 4.918938,-0.32772 4.78678,-0.28903 z"
           id="path8788-3"
           inkscape:connector-curvature="0"
           sodipodi:nodetypes="cczzcczssscc" />
        <path
           style="fill:none;stroke:#000000;stroke-width:0.39687499;stroke-linecap:butt;stroke-linejoin:miter;stroke-miterlimit:4;stroke-dasharray:none;stroke-opacity:1"
           d="m 10.119849,272.96 1.743221,-0.20349"
           id="path8814-0"
           inkscape:connector-curvature="0" />
        <path
           style="fill:none;stroke:#000000;stroke-width:0.39687499;stroke-linecap:butt;stroke-linejoin:miter;stroke-miterlimit:4;stroke-dasharray:none;stroke-opacity:1"
           d="m 10.056524,273.6945 1.882392,-0.1867"
           id="path8818-1"
           inkscape:connector-curvature="0" />
        <path
           style="fill:none;stroke:#000000;stroke-width:0.39687499;stroke-linecap:butt;stroke-linejoin:miter;stroke-miterlimit:4;stroke-dasharray:none;stroke-opacity:1"
           d="M 9.8474992,272.29176 11.59072,272.08828"
           id="path8814-5-6"
           inkscape:connector-curvature="0" />
      </g>
      <path
         sodipodi:nodetypes="ssaaasssss"
         inkscape:connector-curvature="0"
         id="rect8781-0"
         d="m 19.262482,273.93261 7.82539,-0.75468 c 0.786752,-0.0759 1.890026,0.31221 2.381083,1.03407 0.311722,0.45825 0.06108,1.13349 0.09164,1.70022 0.03054,0.56674 0.321208,1.17312 0.09164,1.70024 -0.389088,0.89335 -1.437843,1.79366 -2.224595,1.86954 l -7.82539,0.75467 c -0.78675,0.0759 -1.776853,-0.54854 -1.498367,-1.31485 0.460108,-1.26608 0.42636,-2.40651 -0.183265,-3.40046 -0.411959,-0.67166 0.555129,-1.51288 1.34188,-1.58875 z"
         style="opacity:1;fill:url(#linearGradient8796-6);fill-opacity:1;fill-rule:nonzero;stroke:#000000;stroke-width:0.60689133;stroke-linecap:round;stroke-linejoin:miter;stroke-miterlimit:4;stroke-dasharray:none;stroke-opacity:1;paint-order:fill markers stroke" />
    </g>
    <path
       style="opacity:1;fill:url(#linearGradient8775);fill-opacity:1;fill-rule:nonzero;stroke:#000000;stroke-width:0.60689133;stroke-linecap:round;stroke-linejoin:miter;stroke-miterlimit:4;stroke-dasharray:none;stroke-opacity:1;paint-order:fill markers stroke"
       d="m 21.985726,272.23858 16.35623,-2.50989 1.142581,14.36551 c 0,0 -4.741868,2.25124 -7.363277,2.5523 -2.621408,0.30106 -10.252862,-1.29004 -10.252862,-1.29004 z"
       id="rect8728"
       inkscape:connector-curvature="0"
       sodipodi:nodetypes="cccscc" />
    <path
       id="rect8742"
       style="opacity:1;fill:url(#linearGradient8767);fill-opacity:1;fill-rule:nonzero;stroke:none;stroke-width:0.60689133;stroke-linecap:round;stroke-linejoin:miter;stroke-miterlimit:4;stroke-dasharray:none;stroke-opacity:1;paint-order:fill markers stroke"
       d="m 24.612916,275.73754 2.486349,0.25015 -1.600721,8.62927 -3.860759,2.48935 -0.956226,-3.49722 z m 0.264833,-1.77026 2.175555,0.21888 c 0.459146,0.0462 0.798568,0.38371 0.761033,0.75678 l -0.104228,1.03596 c -0.03753,0.37305 -0.437388,0.6362 -0.896534,0.59 l -2.175555,-0.21888 c -0.459144,-0.0462 -0.798565,-0.38372 -0.761032,-0.75677 l 0.104229,-1.03596 c 0.03753,-0.37307 0.437388,-0.63621 0.896532,-0.59001 z"
       inkscape:connector-curvature="0" />
    <g
       id="g6639"
       transform="rotate(2.7544823,13.501452,853.45249)">
      <path
         sodipodi:nodetypes="ascssssssaa"
         inkscape:connector-curvature="0"
         id="path828"
         d="m 16.575814,257.15301 c -0.524916,4.66084 -2.151331,9.41681 -6.059624,12.69929 -3.908292,3.28249 -8.8373,3.70363 -13.509159,3.70363 -4.839164,0.14725 -10.179518,-0.19896 -10.156156,-0.94758 0.06137,-1.96679 1.849145,-1.38044 3.798552,-1.21446 2.328424,0.19825 8.106507,0.8642 7.13161,-0.51083 -1.151755,-1.62449 -10.7683,0.48543 -14.190857,-4.26872 -1.928125,-2.67829 -2.186686,-4.80799 -1.660833,-7.2526 1.682238,-7.82046 7.132995,-13.60637 17.875417,-14.34144 4.516636,-0.30905 11.032123,-0.88179 14.613528,2.52565 2.377837,2.26234 2.524839,6.34557 2.157522,9.60706 z"
         style="opacity:1;fill:url(#linearGradient8674);fill-opacity:1;fill-rule:nonzero;stroke:#000000;stroke-width:0.60689133;stroke-linecap:square;stroke-linejoin:round;stroke-miterlimit:4;stroke-dasharray:none;stroke-opacity:1;paint-order:fill markers stroke" />
      <path
         sodipodi:nodetypes="ascssssssaa"
         inkscape:connector-curvature="0"
         id="path828-1-9"
         d="m 16.575814,257.15301 c -0.52492,4.66084 -2.15134,9.41681 -6.059629,12.69929 -3.9082915,3.28249 -8.8372995,3.70363 -13.5091585,3.70363 -4.839164,0.14725 -10.1795185,-0.19896 -10.1561565,-0.94758 0.06137,-1.96679 1.849145,-1.38044 3.7985525,-1.21446 2.328424,0.19826 8.106507,0.8642 7.13161,-0.51083 -1.151755,-1.62449 -10.7683005,0.48543 -14.1908575,-4.26872 -1.928125,-2.67829 -2.186686,-4.80799 -1.660833,-7.2526 1.682238,-7.82046 7.132995,-13.60637 17.87541747,-14.34144 4.51663603,-0.30905 11.03212153,-0.88179 14.61352453,2.52565 2.37784,2.26234 2.52484,6.34557 2.15753,9.60706 z"
         style="opacity:1;fill:url(#pattern6626);fill-opacity:1;fill-rule:nonzero;stroke:none;stroke-width:0.60689133;stroke-linecap:square;stroke-linejoin:round;stroke-miterlimit:4;stroke-dasharray:none;stroke-opacity:1;paint-order:fill markers stroke" />
    </g>
    <g
       id="g9076"
       transform="rotate(10.093139,31.411084,271.22005)">
      <g
         id="g9068">
        <path
           style="fill:url(#linearGradient8812);fill-opacity:1;stroke:#000000;stroke-width:0.60689133;stroke-linecap:butt;stroke-linejoin:miter;stroke-miterlimit:4;stroke-dasharray:none;stroke-opacity:1"
           d="m 29.646243,276.30443 -3.852471,2.2386 c 0,0 -2.107791,-1.39623 -3.123627,-1.718 -1.015836,-0.32177 -2.44684,-0.36442 -2.863323,-0.36442 -0.416484,0 -2.134477,1.92623 -2.134477,1.92623 l 2.030356,1.61388 c 0,0 1.70393,-0.58789 2.759201,-0.2603 1.055272,0.32758 1.444212,1.70164 2.446842,2.03035 0.371021,0.12164 0.728846,0.20824 1.119299,0.20824 0.390454,0 0.894807,0.002 1.223421,-0.20824 2.987218,-1.9167 4.158087,-2.64833 4.060713,-2.55096 z"
           id="path8788"
           inkscape:connector-curvature="0"
           sodipodi:nodetypes="cczzcczssscc" />
        <path
           style="fill:none;stroke:#000000;stroke-width:0.34395832;stroke-linecap:butt;stroke-linejoin:miter;stroke-miterlimit:4;stroke-dasharray:none;stroke-opacity:1"
           d="m 18.687524,279.11569 1.43166,-1.01518"
           id="path8814"
           inkscape:connector-curvature="0" />
        <path
           style="fill:none;stroke:#000000;stroke-width:0.39687499;stroke-linecap:butt;stroke-linejoin:miter;stroke-miterlimit:4;stroke-dasharray:none;stroke-opacity:1"
           d="m 19.054478,279.64857 1.56181,-1.06724"
           id="path8818"
           inkscape:connector-curvature="0" />
        <path
           style="fill:none;stroke:#000000;stroke-width:0.39687499;stroke-linecap:butt;stroke-linejoin:miter;stroke-miterlimit:4;stroke-dasharray:none;stroke-opacity:1"
           d="m 18.127875,278.66016 1.43166,-1.01518"
           id="path8814-5"
           inkscape:connector-curvature="0" />
      </g>
      <path
         sodipodi:nodetypes="ssaaasssss"
         inkscape:connector-curvature="0"
         id="rect8781"
         d="m 29.691136,274.45636 6.502994,-4.41785 c 0.653799,-0.44416 1.807962,-0.6332 2.585217,-0.2356 0.493412,0.25242 0.597607,0.96509 0.896405,1.44763 0.298803,0.48253 0.844831,0.87501 0.896409,1.44762 0.08742,0.97048 -0.400554,2.26367 -1.054353,2.70784 l -6.502994,4.41784 c -0.653798,0.44416 -1.822102,0.37156 -1.945573,-0.43438 -0.203996,-1.33155 -0.780954,-2.31586 -1.792814,-2.89526 -0.683774,-0.39153 -0.239089,-1.59368 0.414709,-2.03784 z"
         style="opacity:1;fill:url(#linearGradient8796);fill-opacity:1;fill-rule:nonzero;stroke:#000000;stroke-width:0.60689133;stroke-linecap:round;stroke-linejoin:miter;stroke-miterlimit:4;stroke-dasharray:none;stroke-opacity:1;paint-order:fill markers stroke" />
    </g>
    <g
       style="stroke-width:0.5291667;stroke-miterlimit:4;stroke-dasharray:none"
       id="g4563"
       transform="matrix(1.0263938,0.5117151,-0.5117151,1.0263938,73.097711,-16.819404)">
      <circle
         r="3.6389689"
         cy="234.34521"
         cx="72.155701"
         id="path4547"
         style="opacity:1;fill:url(#radialGradient4557);fill-opacity:1;fill-rule:nonzero;stroke:#000000;stroke-width:0.5291667;stroke-linecap:square;stroke-linejoin:round;stroke-miterlimit:4;stroke-dasharray:none;stroke-opacity:1;paint-order:fill markers stroke" />
      <circle
         r="0.77034551"
         cy="233.70328"
         cx="72.797653"
         id="path4559"
         style="opacity:1;fill:#000000;fill-opacity:1;fill-rule:nonzero;stroke:none;stroke-width:0.5291667;stroke-linecap:square;stroke-linejoin:round;stroke-miterlimit:4;stroke-dasharray:none;stroke-opacity:1;paint-order:fill markers stroke" />
    </g>
    <g
       style="stroke-width:0.5291667;stroke-miterlimit:4;stroke-dasharray:none"
       id="g6798"
       transform="matrix(1.1272596,0.21123988,-0.21123988,1.1272596,50.225292,-40.433602)">
      <path
         sodipodi:nodetypes="sssss"
         inkscape:connector-curvature="0"
         id="path4547-7"
         d="m 18.534919,264.30435 c 1.777574,1.26624 0.744377,3.4893 -3.003466,3.27583 -1.901445,-0.10831 -3.448387,-1.13112 -3.457397,-3.00347 -0.01117,-2.32182 0.8576,-3.57775 2.549536,-3.18504 1.946675,0.45184 1.313277,1.06198 3.911327,2.91268 z"
         style="opacity:1;fill:url(#radialGradient4557-1);fill-opacity:1;fill-rule:nonzero;stroke:#000000;stroke-width:0.5291667;stroke-linecap:square;stroke-linejoin:round;stroke-miterlimit:4;stroke-dasharray:none;stroke-opacity:1;paint-order:fill markers stroke" />
      <circle
         r="0.77034551"
         cy="265.15906"
         cx="13.994612"
         id="path4559-4"
         style="opacity:1;fill:#000000;fill-opacity:1;fill-rule:nonzero;stroke:none;stroke-width:0.5291667;stroke-linecap:square;stroke-linejoin:round;stroke-miterlimit:4;stroke-dasharray:none;stroke-opacity:1;paint-order:fill markers stroke" />
    </g>
    <g
       id="g6635"
       transform="translate(1.984375,-0.66145798)">
      <path
         inkscape:connector-curvature="0"
         id="path6802"
         d="m 16.812941,265.42997 -0.441746,1.61974"
         style="fill:none;stroke:#000000;stroke-width:0.60689133;stroke-linecap:round;stroke-linejoin:miter;stroke-miterlimit:4;stroke-dasharray:none;stroke-opacity:1" />
      <path
         inkscape:connector-curvature="0"
         id="path6802-6"
         d="m 17.829815,265.37228 0.362055,1.67743"
         style="fill:none;stroke:#000000;stroke-width:0.60689133;stroke-linecap:round;stroke-linejoin:miter;stroke-miterlimit:4;stroke-dasharray:none;stroke-opacity:1" />
    </g>
  </g>
</svg>
